# xmcd
# 
# Track frame offsets:
#     150
#     18518
#     37952
#     48994
#     67908
#     82344
#     100158
#     118170
#     133463
#     151099
# 
# Disc length: 2220
# 
# Revision: 6
# Processed by: cddbd v1.5.2PL0 Copyright (c) Steve Scherf et al.
# Submitted via: fre:ac v1.0.31
# 
DISCID=8308aa0a,8e08aa0a
DTITLE=Antonio Vega - De Un Lugar Perdido
DYEAR=2001
DGENRE=Pop
TTITLE0=Estaciones
TTITLE1=A Medio Camino
TTITLE2=Hojas Que Arranqué
TTITLE3=Para Bien Y Para Mal
TTITLE4=Seda Y Hierro
TTITLE5=De Un Lugar Perdido
TTITLE6=Ser Un Chaval
TTITLE7=A Trabajos Forzados
TTITLE8=Horizons
TTITLE9=Seda Y Hierro II
EXTD=
EXTT0=
EXTT1=
EXTT2=
EXTT3=
EXTT4=
EXTT5=
EXTT6=
EXTT7=
EXTT8=
EXTT9=
PLAYORDER=
